<svg xmlns="http://www.w3.org/2000/svg" viewBox="0 0 90 90"><g id="Layer_3"><path d="M49.95 87.26a3.47 3.47 0 0 1-3-1.7c-1.13-1.92-.72-6.06-.67-6.53l.13-1.2 1.11.47c.43.18 4.27 1.8 5.4 3.73a3.47 3.47 0 0 1-2.98 5.23Zm-1.97-6.77a9.48 9.48 0 0 0 .52 4.16 1.67 1.67 0 0 0 3.06-.44 1.66 1.66 0 0 0-.18-1.26 9.46 9.46 0 0 0-3.4-2.46ZM34.3 81.42a3.47 3.47 0 0 1-3-1.7c-1.14-1.92-.72-6.07-.67-6.53l.13-1.2 1.11.46c.43.18 4.27 1.81 5.4 3.74a3.47 3.47 0 0 1-2.98 5.23Zm-1.97-6.77a9.47 9.47 0 0 0 .52 4.15 1.67 1.67 0 0 0 2.88-1.7 9.46 9.46 0 0 0-3.4-2.45ZM60.78 79.2a3.48 3.48 0 0 1-3-1.7c-1.13-1.93-.71-6.07-.66-6.54l.13-1.2 1.1.47c.44.18 4.27 1.8 5.41 3.73a3.47 3.47 0 0 1-2.98 5.24Zm-1.96-6.78a9.48 9.48 0 0 0 .52 4.16 1.67 1.67 0 0 0 2.87-1.7 9.45 9.45 0 0 0-3.4-2.46ZM71.2 65.75h-51a10.22 10.22 0 0 1-4.16-19.56 7.68 7.68 0 0 1 10.14-8.42 14.26 14.26 0 0 1 12.31-7.14 14.1 14.1 0 0 1 13.2 9.02 11.3 11.3 0 0 1 12.74 8.46 7.37 7.37 0 0 1 7.83 7.34v.33a5.04 5.04 0 0 1-1.05 9.97ZM23.65 39.84a5.18 5.18 0 0 0-4.94 6.75 1.25 1.25 0 0 1-.82 1.57 7.72 7.72 0 0 0 2.31 15.09h51.02a2.54 2.54 0 0 0 0-5.08l-.26.03a1.23 1.23 0 0 1-1.08-.43 1.25 1.25 0 0 1-.26-1.12 4.9 4.9 0 0 0 .15-1.2 4.82 4.82 0 0 0-6.03-4.7 1.25 1.25 0 0 1-1.54-1.06 8.78 8.78 0 0 0-11-7.38 1.25 1.25 0 0 1-1.51-.85 11.62 11.62 0 0 0-11.19-8.33 11.75 11.75 0 0 0-10.6 6.79 1.25 1.25 0 0 1-1.75.57 5.2 5.2 0 0 0-2.5-.65Z"/><path d="M26.6 54.3a9.34 9.34 0 0 1 15.69-7.8" style="fill:#fff"/><path d="M27.24 54.24a10.52 10.52 0 0 1 1.05-4.14 8.84 8.84 0 0 1 4-4.03 9.01 9.01 0 0 1 5.63-.77 10.53 10.53 0 0 1 3.93 1.66l.87-.93a8.69 8.69 0 0 0-4.28-2.83 9.96 9.96 0 0 0-7.26.64 9.83 9.83 0 0 0-4.88 5.42 8.67 8.67 0 0 0-.33 5.12ZM85.5 40.92a1 1 0 0 0-1.16-.34A21.15 21.15 0 0 1 63.48 4.44a1 1 0 0 0 .28-1.17 1.02 1.02 0 0 0-1.05-.59A24.67 24.67 0 0 0 41.8 32.31a12.78 12.78 0 0 1 2.25.84 22.68 22.68 0 0 1 15.61-27.8 23.17 23.17 0 0 0 22 38.09 22.67 22.67 0 0 1-14.55 6.32 6.11 6.11 0 0 1 2.47 1.75 24.6 24.6 0 0 0 15.91-9.39 1 1 0 0 0 .01-1.2Z"/></g></svg>
